<?xml version="1.0" standalone="no"?>
<!DOCTYPE svg PUBLIC "-//W3C//DTD SVG 20010904//EN"
 "http://www.w3.org/TR/2001/REC-SVG-20010904/DTD/svg10.dtd">
<svg version="1.0" xmlns="http://www.w3.org/2000/svg"
 width="225.000000pt" height="225.000000pt" viewBox="0 0 225.000000 225.000000"
 preserveAspectRatio="xMidYMid meet">

<g transform="translate(0.000000,225.000000) scale(0.100000,-0.100000)"
fill="#000000" stroke="none">
<path d="M755 2153 c-4 -10 -18 -45 -30 -78 l-23 -60 -73 -16 c-41 -8 -91 -21
-112 -28 -37 -12 -40 -12 -66 13 -37 36 -44 33 -36 -15 7 -38 4 -43 -42 -92
-88 -93 -136 -230 -117 -333 9 -46 8 -52 -22 -94 -97 -140 -61 -282 91 -351
l40 -19 -77 0 -78 0 0 -60 c0 -37 -6 -74 -17 -93 -42 -81 -34 -152 21 -186 18
-12 40 -21 49 -21 11 0 17 -15 22 -53 10 -79 5 -96 -39 -120 -37 -21 -39 -21
-50 -3 -27 46 -59 77 -69 67 -6 -6 -12 -45 -14 -88 -3 -60 3 -105 25 -198 l28
-120 39 -7 c22 -4 81 -7 130 -7 80 0 113 6 176 33 12 5 19 -8 33 -69 l18 -76
51 5 c29 3 86 8 127 11 109 9 270 42 358 73 67 24 84 26 132 19 30 -5 116 -6
190 -4 161 6 241 26 375 95 72 37 108 64 180 137 81 81 165 199 165 232 0 8
-21 4 -66 -13 l-65 -24 -26 60 c-15 33 -30 60 -34 60 -3 0 -19 -30 -35 -66
l-28 -66 -44 6 c-24 3 -48 8 -53 12 -5 3 -9 41 -9 85 0 43 -2 79 -6 79 -3 0
-32 -18 -64 -40 l-59 -40 -29 36 c-17 20 -38 51 -48 70 l-18 34 37 75 c20 41
37 78 37 80 0 3 -31 5 -69 5 -39 0 -72 4 -76 9 -3 5 -18 53 -34 107 l-29 97
30 54 c32 58 34 54 -38 72 -40 11 -42 14 -78 97 l-36 86 42 76 41 75 -75 -7
-76 -7 -32 53 c-18 29 -48 72 -66 95 l-35 42 7 82 7 83 -39 -24 c-21 -13 -49
-30 -61 -38 -20 -12 -27 -12 -65 7 -24 11 -60 26 -82 33 -36 12 -40 18 -68 93
-16 44 -31 81 -32 83 -2 1 -7 -5 -11 -15z m53 -180 c-30 -37 -77 -36 -91 1 -5
13 12 77 39 146 4 9 17 -14 35 -59 22 -57 26 -78 17 -88z m-96 -13 c22 -39 64
-41 103 -5 25 24 30 25 63 14 78 -25 89 -35 95 -86 4 -35 12 -53 32 -70 30
-26 83 -31 91 -8 7 17 33 -12 82 -88 28 -45 29 -50 16 -75 -23 -44 -18 -89 12
-117 15 -14 34 -26 43 -27 9 0 22 -2 30 -2 8 -1 27 -31 42 -67 l28 -66 -19
-39 c-11 -21 -20 -48 -20 -60 0 -32 31 -65 70 -73 33 -6 35 -9 61 -101 25 -85
26 -96 13 -121 -28 -56 -6 -111 52 -125 14 -4 38 -26 56 -53 17 -25 40 -56 51
-68 11 -13 20 -38 21 -63 2 -27 10 -48 24 -63 20 -19 25 -20 67 -9 25 6 64 9
90 5 37 -5 49 -11 60 -34 17 -32 52 -59 77 -59 10 0 32 13 49 28 27 24 30 31
21 49 -10 18 -7 21 29 32 23 7 48 15 56 18 18 7 -41 -89 -96 -156 -53 -65
-171 -155 -256 -196 -120 -57 -227 -79 -386 -78 -147 0 -179 7 -135 30 15 8
25 17 22 20 -3 4 -41 -10 -84 -31 -43 -20 -122 -47 -174 -61 -89 -22 -322 -55
-394 -55 l-30 0 -31 133 c-17 72 -30 132 -30 133 29 12 417 269 417 275 0 14
-8 11 -53 -19 -70 -48 -67 -48 -67 7 l0 49 43 7 c23 4 63 15 89 25 38 14 49
15 60 4 7 -7 30 -20 51 -29 34 -14 38 -14 44 0 3 9 3 41 0 70 l-6 55 46 40
c25 22 43 43 40 47 -4 3 -27 -13 -52 -36 -46 -42 -59 -48 -70 -31 -3 6 -17 10
-30 10 -30 0 -59 -41 -53 -74 4 -18 -1 -27 -17 -34 -44 -20 -145 -34 -219 -30
-63 3 -79 7 -101 28 -43 40 -31 61 55 95 42 17 92 40 112 53 41 25 132 122
123 130 -3 3 -27 -19 -55 -49 -48 -52 -49 -53 -50 -26 0 21 4 27 18 25 14 -3
17 6 20 55 l3 57 -53 1 -53 0 48 15 c26 8 47 19 47 25 0 7 -7 8 -17 4 -35 -13
-139 -34 -205 -40 l-68 -7 0 39 c0 22 -3 68 -6 102 -7 60 -6 61 18 61 30 0 48
17 47 44 0 20 -1 20 -16 -1 -21 -31 -49 -29 -70 5 -9 15 -18 29 -20 31 -1 2
-12 -8 -24 -22 -28 -37 -58 -35 -65 3 -7 30 -24 42 -24 16 0 -33 20 -66 40
-66 19 0 20 -6 20 -100 l0 -101 -37 7 c-102 18 -197 89 -223 168 -16 49 1 121
43 178 30 41 31 47 32 148 0 97 3 110 31 170 30 61 96 150 113 150 4 0 12 -32
18 -71 6 -39 13 -73 15 -75 3 -2 25 -7 50 -10 41 -6 49 -3 72 19 14 14 28 37
32 52 6 23 -1 33 -51 77 -64 58 -64 59 32 82 90 22 106 20 125 -14z m-122
-140 c0 -28 -38 -60 -73 -60 -18 0 -37 4 -43 8 -9 5 -44 171 -44 207 0 3 36
-26 80 -66 44 -39 80 -79 80 -89z m498 83 c-3 -43 -7 -81 -7 -85 -1 -5 -12 -8
-26 -8 -36 0 -65 33 -65 74 0 29 6 38 48 65 26 17 49 31 52 31 3 0 2 -35 -2
-77z m225 -323 c-21 -38 -43 -70 -49 -70 -6 0 -23 9 -38 21 -20 15 -26 29 -26
58 0 51 14 61 88 61 l63 0 -38 -70z m139 -266 c3 -2 -7 -29 -24 -59 -25 -47
-33 -55 -51 -49 -43 12 -60 61 -36 106 9 17 17 19 57 13 26 -4 50 -9 54 -11z
m-912 -141 c0 -107 -3 -113 -44 -97 -13 5 -16 24 -16 105 0 62 5 107 12 119
13 20 13 20 30 -2 14 -18 18 -44 18 -125z m233 -120 l67 -6 0 -38 0 -39 -198
0 c-110 0 -247 3 -305 7 l-107 6 0 39 0 38 238 0 c130 0 267 -3 305 -7z m821
-72 c4 -5 -6 -37 -21 -71 -24 -57 -28 -61 -52 -55 -39 10 -61 34 -61 67 0 54
15 68 75 68 29 0 56 -4 59 -9z m-1332 -51 c5 -34 -7 -41 -17 -10 -3 11 -11 20
-16 20 -6 0 -7 5 -4 10 12 20 33 9 37 -20z m538 -3 c0 -30 -5 -35 -52 -59 -29
-14 -67 -28 -84 -32 -17 -4 -42 -18 -54 -31 -18 -19 -20 -29 -13 -51 15 -44
53 -65 127 -71 l66 -6 0 -57 0 -57 -96 -61 -95 -62 -46 35 c-25 19 -50 32 -56
28 -10 -6 -4 -151 9 -205 l6 -28 -60 0 c-112 0 -105 -12 -130 222 -13 111 -22
209 -22 216 0 6 10 12 22 12 31 0 68 38 68 70 0 39 -34 77 -75 84 -33 7 -35 9
-35 46 l0 40 260 0 260 0 0 -33z m-491 -71 c45 -7 64 -31 59 -74 -7 -60 -105
-66 -161 -11 -25 25 -29 36 -24 67 3 20 10 50 16 66 l12 30 29 -36 c21 -26 40
-37 69 -42z m753 -53 c13 -11 18 -30 18 -65 l0 -49 -29 16 c-16 8 -36 22 -45
30 -16 16 -22 66 -9 78 12 12 46 7 65 -10z m700 -115 c-4 -70 -17 -88 -64 -88
-17 0 -31 7 -38 19 -20 39 -11 59 42 96 29 19 55 35 58 35 3 0 4 -28 2 -62z
m228 -150 c-29 -24 -55 -23 -81 3 -23 23 -21 36 19 114 l25 49 29 -74 30 -75
-22 -17z m-1819 16 c18 -30 20 -38 8 -45 -30 -20 -51 -30 -55 -27 -7 7 9 108
17 108 4 0 17 -16 30 -36z m138 -116 c20 -191 15 -178 75 -179 28 0 69 -4 91
-8 l40 -8 -35 -15 c-19 -9 -59 -19 -88 -23 -66 -9 -188 3 -205 20 -20 20 -62
224 -49 237 13 13 143 87 153 88 4 0 12 -51 18 -112z m244 15 l26 -28 -34 -22
-33 -22 -4 45 c-5 64 4 69 45 27z"/>
<path d="M344 1489 c-36 -10 -59 -33 -49 -49 3 -5 24 -10 45 -10 74 0 124 41
74 60 -29 11 -28 11 -70 -1z"/>
<path d="M655 1477 c-19 -15 -19 -16 -1 -36 33 -36 126 -40 126 -6 0 35 -92
66 -125 42z"/>
<path d="M557 604 c-10 -11 -8 -63 3 -85 15 -28 58 -25 71 5 16 34 -7 80 -41
84 -14 2 -29 0 -33 -4z"/>
<path d="M395 543 c-29 -28 -4 -103 34 -103 44 0 58 77 19 104 -28 20 -33 20
-53 -1z"/>
<path d="M380 395 c-26 -32 18 -96 56 -81 23 9 17 63 -8 80 -28 20 -32 20 -48
1z"/>
</g>
</svg>
