<svg xmlns="http://www.w3.org/2000/svg" viewBox="0 0 200 200" width="200" height="200" fill="none" stroke="currentColor" stroke-width="1">
  <title>Arariwa seal — Systems / Applied (doble indexación)</title>
  
  <circle cx="100" cy="100" r="96" stroke-width="0.6"></circle>
  <circle cx="100" cy="100" r="88"></circle>
  <circle cx="100" cy="100" r="72" stroke-width="0.5"></circle>
  
  <path d="M 100 20 L 180 100 L 100 180 L 20 100 Z" stroke-width="0.4"></path>
  
  <path d="M 100 62 L 112 62 L 112 74 L 124 74 L 124 86 L 138 86 L 138 114 L 124 114 L 124 126 L 112 126 L 112 138 L 88 138 L 88 126 L 76 126 L 76 114 L 62 114 L 62 86 L 76 86 L 76 74 L 88 74 L 88 62 Z" stroke-width="1.1"></path>
  
  <g stroke-width="0.7">
    <rect x="76" y="76" width="48" height="48" stroke-width="0.6"></rect>
    <rect x="86" y="86" width="28" height="28" stroke-width="0.5"></rect>
  </g>
  <circle cx="100" cy="100" r="3" fill="currentColor"></circle>
  
  <g stroke-width="0.5">
    <circle cx="58" cy="58" r="2" fill="currentColor"></circle>
    <circle cx="142" cy="58" r="2" fill="currentColor"></circle>
    <circle cx="142" cy="142" r="2" fill="currentColor"></circle>
    <circle cx="58" cy="142" r="2" fill="currentColor"></circle>
  </g>
</svg>