<?xml version="1.0" encoding="UTF-8"?>

<svg xmlns="http://www.w3.org/2000/svg" viewBox="0 0 140 180" role="img" aria-label="Arariwa (guardián)">
  <g fill="#1C1814" stroke="none">
    
    <rect x="56" y="16" width="28" height="28"></rect>
    <rect x="48" y="8" width="44" height="8"></rect>
    <rect x="40" y="0" width="60" height="8"></rect>
    
    <rect x="62" y="24" width="5" height="5" fill="#F2ECE0"></rect>
    <rect x="73" y="24" width="5" height="5" fill="#F2ECE0"></rect>
    
    <rect x="36" y="44" width="68" height="14"></rect>
    
    <rect x="42" y="58" width="56" height="60"></rect>
    
    <path fill="#F2ECE0" d="M 62 72 h 16 v 8 h 8 v 8 h 8 v 8 h -8 v 8 h -8 v 8 h -16 v -8 h -8 v -8 h -8 v -8 h 8 v -8 h 8 z" transform="translate(0 4)"></path>
    
    <rect x="26" y="58" width="10" height="44"></rect>
    <rect x="26" y="52" width="18" height="10"></rect>
    <rect x="104" y="58" width="10" height="44"></rect>
    <rect x="96" y="52" width="18" height="10"></rect>
    
    <circle cx="26" cy="46" r="8"></circle>
    <circle cx="26" cy="46" r="2.5" fill="#A0281E"></circle>
    <circle cx="114" cy="46" r="8"></circle>
    <circle cx="114" cy="46" r="2.5" fill="#A0281E"></circle>
    
    <rect x="42" y="118" width="20" height="40"></rect>
    <rect x="78" y="118" width="20" height="40"></rect>
    
    <rect x="20" y="168" width="100" height="2"></rect>
  </g>
</svg>