<svg xmlns="http://www.w3.org/2000/svg" viewBox="0 0 400 400" width="400" height="400" fill="none" stroke="currentColor" stroke-width="1">
  <title>Arariwa master sigil — chakana inscribed in alchemy circle</title>
  
  <circle cx="200" cy="200" r="195" stroke-width="0.5"></circle>
  <circle cx="200" cy="200" r="180"></circle>
  <circle cx="200" cy="200" r="140" stroke-width="0.5"></circle>
  <circle cx="200" cy="200" r="100"></circle>
  <circle cx="200" cy="200" r="60" stroke-width="0.5"></circle>
  
  <path d="M 200 140 L 220 140 L 220 160 L 240 160 L 240 180 L 260 180 L 260 220 L 240 220 L 240 240 L 220 240 L 220 260 L 180 260 L 180 240 L 160 240 L 160 220 L 140 220 L 140 180 L 160 180 L 160 160 L 180 160 L 180 140 Z" stroke-width="1.2"></path>
  <circle cx="200" cy="200" r="12"></circle>
  <circle cx="200" cy="200" r="4" fill="currentColor"></circle>
  
  <path d="M 200 40 L 360 200 L 200 360 L 40 200 Z" stroke-width="0.5"></path>
  
  <path d="M 200 80 L 212 100 L 188 100 Z"></path>
  <path d="M 320 200 L 300 212 L 300 188 Z"></path>
  <path d="M 200 320 L 188 300 L 212 300 Z"></path>
  <path d="M 80 200 L 100 188 L 100 212 Z"></path>
  
  <g stroke-width="0.7">
    <circle cx="200" cy="50" r="4"></circle>
    <circle cx="306" cy="94" r="4"></circle>
    <circle cx="350" cy="200" r="4"></circle>
    <circle cx="306" cy="306" r="4"></circle>
    <circle cx="200" cy="350" r="4"></circle>
    <circle cx="94" cy="306" r="4"></circle>
    <circle cx="50" cy="200" r="4"></circle>
    <circle cx="94" cy="94" r="4"></circle>
  </g>
  
  <line x1="50" y1="200" x2="350" y2="200" stroke-width="0.3"></line>
  <line x1="200" y1="50" x2="200" y2="350" stroke-width="0.3"></line>
</svg>