<?xml version="1.0" encoding="UTF-8" standalone="no"?>
<!DOCTYPE svg PUBLIC "-//W3C//DTD SVG 1.1//EN"
 "http://www.w3.org/Graphics/SVG/1.1/DTD/svg11.dtd">
<!-- Generated by graphviz version 13.1.2 (20250808.2320)
 -->
<!-- Title: Portfolio Application Architecture Pages: 1 -->
<svg width="1260pt" height="622pt"
 viewBox="0.00 0.00 1260.00 622.00" xmlns="http://www.w3.org/2000/svg" xmlns:xlink="http://www.w3.org/1999/xlink">
<g id="graph0" class="graph" transform="scale(1 1) rotate(0) translate(28.8 593.55)">
<title>Portfolio Application Architecture</title>
<polygon fill="white" stroke="none" points="-28.8,28.8 -28.8,-593.55 1231.35,-593.55 1231.35,28.8 -28.8,28.8"/>
<text xml:space="preserve" text-anchor="middle" x="156.12" y="-543.65" font-family="Helvetica,sans-Serif" font-size="18.00" fill="#2d3436">Portfolio Application Architecture</text>
<g id="clust1" class="cluster">
<title>cluster_rosewt.dev application</title>
<polygon fill="white" stroke="#aeb6be" stroke-dasharray="5,2" points="321.95,-8 321.95,-527 1194.55,-527 1194.55,-8 321.95,-8"/>
<text xml:space="preserve" text-anchor="middle" x="394.08" y="-511.6" font-family="Sans-Serif" font-size="12.00" fill="#2d3436">rosewt.dev application</text>
</g>
<!-- 43e062abc3e94c0b8b2350a8c2385a01 -->
<g id="node1" class="node">
<title>43e062abc3e94c0b8b2350a8c2385a01</title>
<path fill="#999999" stroke="black" d="M175.2,-312.6C175.2,-312.6 12,-312.6 12,-312.6 6,-312.6 0,-306.6 0,-300.6 0,-300.6 0,-209.4 0,-209.4 0,-203.4 6,-197.4 12,-197.4 12,-197.4 175.2,-197.4 175.2,-197.4 181.2,-197.4 187.2,-203.4 187.2,-209.4 187.2,-209.4 187.2,-300.6 187.2,-300.6 187.2,-306.6 181.2,-312.6 175.2,-312.6"/>
<text xml:space="preserve" text-anchor="start" x="40.72" y="-271.6" font-family="Helvetica,sans-Serif" font-weight="bold" font-size="12.00" fill="white">Portfolio visitor</text>
<text xml:space="preserve" text-anchor="start" x="54.6" y="-262.45" font-family="Helvetica,sans-Serif" font-size="9.00" fill="white">[External Person]</text>
<text xml:space="preserve" text-anchor="start" x="7.35" y="-239.5" font-family="Helvetica,sans-Serif" font-size="10.00" fill="white">Browses projects, publications, and</text>
<text xml:space="preserve" text-anchor="start" x="47.1" y="-229.5" font-family="Helvetica,sans-Serif" font-size="10.00" fill="white">downloadable CVs.</text>
</g>
<!-- 0137208485f74795ad2732204c8be851 -->
<g id="node2" class="node">
<title>0137208485f74795ad2732204c8be851</title>
<polygon fill="#1874cd" stroke="black" points="525.15,-312.6 337.95,-312.6 337.95,-197.4 525.15,-197.4 525.15,-312.6"/>
<text xml:space="preserve" text-anchor="start" x="377.18" y="-271.6" font-family="Helvetica,sans-Serif" font-weight="bold" font-size="12.00" fill="white">Single&#45;page app</text>
<text xml:space="preserve" text-anchor="start" x="337.05" y="-262.45" font-family="Helvetica,sans-Serif" font-size="9.00" fill="white">[Container: React 19 + Vite + TypeScript]</text>
<text xml:space="preserve" text-anchor="start" x="354.68" y="-239.5" font-family="Helvetica,sans-Serif" font-size="10.00" fill="white">Client&#45;side portfolio experience</text>
<text xml:space="preserve" text-anchor="start" x="370.05" y="-229.5" font-family="Helvetica,sans-Serif" font-size="10.00" fill="white">delivered as a static site.</text>
</g>
<!-- 43e062abc3e94c0b8b2350a8c2385a01&#45;&gt;0137208485f74795ad2732204c8be851 -->
<g id="edge1" class="edge">
<title>43e062abc3e94c0b8b2350a8c2385a01&#45;&gt;0137208485f74795ad2732204c8be851</title>
<path fill="none" stroke="#999999" stroke-width="1.2" stroke-dasharray="5,2" d="M187.29,-255C187.29,-255 325.86,-255 325.86,-255"/>
<polygon fill="#999999" stroke="#999999" stroke-width="1.2" points="325.86,-258.5 335.86,-255 325.86,-251.5 325.86,-258.5"/>
<text xml:space="preserve" text-anchor="start" x="220.2" y="-259.75" font-family="Sans-Serif" font-size="10.00" fill="#2d3436">loads and explores</text>
</g>
<!-- aae62f7cc40241ec9af9123f6904800b -->
<g id="node3" class="node">
<title>aae62f7cc40241ec9af9123f6904800b</title>
<polygon fill="#1874cd" stroke="black" points="836.85,-312.6 649.65,-312.6 649.65,-197.4 836.85,-197.4 836.85,-312.6"/>
<text xml:space="preserve" text-anchor="start" x="692.63" y="-276.6" font-family="Helvetica,sans-Serif" font-weight="bold" font-size="12.00" fill="white">UI components</text>
<text xml:space="preserve" text-anchor="start" x="674.63" y="-267.45" font-family="Helvetica,sans-Serif" font-size="9.00" fill="white">[Container: src/components/*]</text>
<text xml:space="preserve" text-anchor="start" x="648.75" y="-244.5" font-family="Helvetica,sans-Serif" font-size="10.00" fill="white">Reusable presentation components for</text>
<text xml:space="preserve" text-anchor="start" x="650.25" y="-234.5" font-family="Helvetica,sans-Serif" font-size="10.00" fill="white">hero, experience, research, and footer</text>
<text xml:space="preserve" text-anchor="start" x="721.5" y="-224.5" font-family="Helvetica,sans-Serif" font-size="10.00" fill="white">sections.</text>
</g>
<!-- 0137208485f74795ad2732204c8be851&#45;&gt;aae62f7cc40241ec9af9123f6904800b -->
<g id="edge2" class="edge">
<title>0137208485f74795ad2732204c8be851&#45;&gt;aae62f7cc40241ec9af9123f6904800b</title>
<path fill="none" stroke="#999999" stroke-width="1.2" stroke-dasharray="5,2" d="M525.49,-255C525.49,-255 637.41,-255 637.41,-255"/>
<polygon fill="#999999" stroke="#999999" stroke-width="1.2" points="637.41,-258.5 647.41,-255 637.41,-251.5 637.41,-258.5"/>
<text xml:space="preserve" text-anchor="start" x="558.15" y="-259.75" font-family="Sans-Serif" font-size="10.00" fill="#2d3436">renders with</text>
</g>
<!-- 808e5ee0dcfc4258b8069294a038532f -->
<g id="node4" class="node">
<title>808e5ee0dcfc4258b8069294a038532f</title>
<polygon fill="#1874cd" stroke="black" points="1178.55,-139.6 991.35,-139.6 991.35,-24.4 1178.55,-24.4 1178.55,-139.6"/>
<text xml:space="preserve" text-anchor="start" x="1029.08" y="-98.6" font-family="Helvetica,sans-Serif" font-weight="bold" font-size="12.00" fill="white">Content registry</text>
<text xml:space="preserve" text-anchor="start" x="1008.83" y="-89.45" font-family="Helvetica,sans-Serif" font-size="9.00" fill="white">[Container: src/data/constants.ts]</text>
<text xml:space="preserve" text-anchor="start" x="1002.83" y="-66.5" font-family="Helvetica,sans-Serif" font-size="10.00" fill="white">Centralized structured content for</text>
<text xml:space="preserve" text-anchor="start" x="1003.95" y="-56.5" font-family="Helvetica,sans-Serif" font-size="10.00" fill="white">public copy, metadata, and links.</text>
</g>
<!-- aae62f7cc40241ec9af9123f6904800b&#45;&gt;808e5ee0dcfc4258b8069294a038532f -->
<g id="edge3" class="edge">
<title>aae62f7cc40241ec9af9123f6904800b&#45;&gt;808e5ee0dcfc4258b8069294a038532f</title>
<path fill="none" stroke="#999999" stroke-width="1.2" stroke-dasharray="5,2" d="M743.55,-196.91C743.55,-146.65 743.55,-82 743.55,-82 743.55,-82 979.39,-82 979.39,-82"/>
<polygon fill="#999999" stroke="#999999" stroke-width="1.2" points="979.39,-85.5 989.39,-82 979.39,-78.5 979.39,-85.5"/>
<text xml:space="preserve" text-anchor="start" x="869.85" y="-134.75" font-family="Sans-Serif" font-size="10.00" fill="#2d3436">reads content from</text>
</g>
<!-- caac5ac6e828466987fc4ff434b96f49 -->
<g id="node5" class="node">
<title>caac5ac6e828466987fc4ff434b96f49</title>
<polygon fill="#1874cd" stroke="black" points="1178.55,-312.6 991.35,-312.6 991.35,-197.4 1178.55,-197.4 1178.55,-312.6"/>
<text xml:space="preserve" text-anchor="start" x="1012.58" y="-271.6" font-family="Helvetica,sans-Serif" font-weight="bold" font-size="12.00" fill="white">Design system styles</text>
<text xml:space="preserve" text-anchor="start" x="1031.7" y="-262.45" font-family="Helvetica,sans-Serif" font-size="9.00" fill="white">[Container: src/styles/*]</text>
<text xml:space="preserve" text-anchor="start" x="990.08" y="-239.5" font-family="Helvetica,sans-Serif" font-size="10.00" fill="white">Arariwa design tokens and layout rules</text>
<text xml:space="preserve" text-anchor="start" x="1015.58" y="-229.5" font-family="Helvetica,sans-Serif" font-size="10.00" fill="white">applied across the interface.</text>
</g>
<!-- aae62f7cc40241ec9af9123f6904800b&#45;&gt;caac5ac6e828466987fc4ff434b96f49 -->
<g id="edge4" class="edge">
<title>aae62f7cc40241ec9af9123f6904800b&#45;&gt;caac5ac6e828466987fc4ff434b96f49</title>
<path fill="none" stroke="#999999" stroke-width="1.2" stroke-dasharray="5,2" d="M837.07,-255C837.07,-255 979.22,-255 979.22,-255"/>
<polygon fill="#999999" stroke="#999999" stroke-width="1.2" points="979.22,-258.5 989.22,-255 979.22,-251.5 979.22,-258.5"/>
<text xml:space="preserve" text-anchor="start" x="897.98" y="-259.75" font-family="Sans-Serif" font-size="10.00" fill="#2d3436">applies</text>
</g>
<!-- 875826aa8c1045ef92d1986302a6e5e6 -->
<g id="node6" class="node">
<title>875826aa8c1045ef92d1986302a6e5e6</title>
<polygon fill="#1874cd" stroke="black" points="1178.55,-485.6 991.35,-485.6 991.35,-370.4 1178.55,-370.4 1178.55,-485.6"/>
<text xml:space="preserve" text-anchor="start" x="1040.33" y="-444.6" font-family="Helvetica,sans-Serif" font-weight="bold" font-size="12.00" fill="white">Static assets</text>
<text xml:space="preserve" text-anchor="start" x="998.33" y="-435.45" font-family="Helvetica,sans-Serif" font-size="9.00" fill="white">[Container: public/assets + src/assets]</text>
<text xml:space="preserve" text-anchor="start" x="985.58" y="-412.5" font-family="Helvetica,sans-Serif" font-size="10.00" fill="white">Brand SVGs, imagery, and downloadable</text>
<text xml:space="preserve" text-anchor="start" x="1020.45" y="-402.5" font-family="Helvetica,sans-Serif" font-size="10.00" fill="white">files bundled with the site.</text>
</g>
<!-- aae62f7cc40241ec9af9123f6904800b&#45;&gt;875826aa8c1045ef92d1986302a6e5e6 -->
<g id="edge5" class="edge">
<title>aae62f7cc40241ec9af9123f6904800b&#45;&gt;875826aa8c1045ef92d1986302a6e5e6</title>
<path fill="none" stroke="#999999" stroke-width="1.2" stroke-dasharray="5,2" d="M743.55,-313.09C743.55,-363.35 743.55,-428 743.55,-428 743.55,-428 979.39,-428 979.39,-428"/>
<polygon fill="#999999" stroke="#999999" stroke-width="1.2" points="979.39,-431.5 989.39,-428 979.39,-424.5 979.39,-431.5"/>
<text xml:space="preserve" text-anchor="start" x="888.98" y="-384.75" font-family="Sans-Serif" font-size="10.00" fill="#2d3436">references</text>
</g>
</g>
</svg>
