<?xml version="1.0" encoding="UTF-8" standalone="no"?>
<!DOCTYPE svg PUBLIC "-//W3C//DTD SVG 1.1//EN"
 "http://www.w3.org/Graphics/SVG/1.1/DTD/svg11.dtd">
<!-- Generated by graphviz version 13.1.2 (20250808.2320)
 -->
<!-- Title: Portfolio Deployment Topology Pages: 1 -->
<svg width="1531pt" height="499pt"
 viewBox="0.00 0.00 1531.00 499.00" xmlns="http://www.w3.org/2000/svg" xmlns:xlink="http://www.w3.org/1999/xlink">
<g id="graph0" class="graph" transform="scale(1 1) rotate(0) translate(28.8 470.15)">
<title>Portfolio Deployment Topology</title>
<polygon fill="white" stroke="none" points="-28.8,28.8 -28.8,-470.15 1501.8,-470.15 1501.8,28.8 -28.8,28.8"/>
<text xml:space="preserve" text-anchor="middle" x="146.38" y="-420.25" font-family="Helvetica,sans-Serif" font-size="18.00" fill="#2d3436">Portfolio Deployment Topology</text>
<g id="clust1" class="cluster">
<title>cluster_Repository</title>
<polygon fill="white" stroke="#aeb6be" stroke-dasharray="5,2" points="274.7,-57.6 274.7,-403.6 493.9,-403.6 493.9,-57.6 274.7,-57.6"/>
<text xml:space="preserve" text-anchor="middle" x="313.45" y="-388.2" font-family="Sans-Serif" font-size="12.00" fill="#2d3436">Repository</text>
</g>
<g id="clust2" class="cluster">
<title>cluster_Netlify delivery</title>
<polygon fill="white" stroke="#aeb6be" stroke-dasharray="5,2" points="630.65,-156.6 630.65,-329.6 1465,-329.6 1465,-156.6 630.65,-156.6"/>
<text xml:space="preserve" text-anchor="middle" x="680.65" y="-314.2" font-family="Sans-Serif" font-size="12.00" fill="#2d3436">Netlify delivery</text>
</g>
<!-- faf6ffd4ae7940039709a72e559b2f5d -->
<g id="node1" class="node">
<title>faf6ffd4ae7940039709a72e559b2f5d</title>
<path fill="#999999" stroke="black" d="M175.2,-362.2C175.2,-362.2 12,-362.2 12,-362.2 6,-362.2 0,-356.2 0,-350.2 0,-350.2 0,-259 0,-259 0,-253 6,-247 12,-247 12,-247 175.2,-247 175.2,-247 181.2,-247 187.2,-253 187.2,-259 187.2,-259 187.2,-350.2 187.2,-350.2 187.2,-356.2 181.2,-362.2 175.2,-362.2"/>
<text xml:space="preserve" text-anchor="start" x="57.22" y="-321.2" font-family="Helvetica,sans-Serif" font-weight="bold" font-size="12.00" fill="white">Maintainer</text>
<text xml:space="preserve" text-anchor="start" x="54.6" y="-312.05" font-family="Helvetica,sans-Serif" font-size="9.00" fill="white">[External Person]</text>
<text xml:space="preserve" text-anchor="start" x="5.47" y="-289.1" font-family="Helvetica,sans-Serif" font-size="10.00" fill="white">Updates the repository source code,</text>
<text xml:space="preserve" text-anchor="start" x="9.97" y="-279.1" font-family="Helvetica,sans-Serif" font-size="10.00" fill="white">content, and deployment settings.</text>
</g>
<!-- f3bd34d81308477a847669f9349c4ef6 -->
<g id="node3" class="node">
<title>f3bd34d81308477a847669f9349c4ef6</title>
<polygon fill="#1874cd" stroke="black" points="477.9,-362.2 290.7,-362.2 290.7,-247 477.9,-247 477.9,-362.2"/>
<text xml:space="preserve" text-anchor="start" x="329.17" y="-321.2" font-family="Helvetica,sans-Serif" font-weight="bold" font-size="12.00" fill="white">Frontend source</text>
<text xml:space="preserve" text-anchor="start" x="321.3" y="-312.05" font-family="Helvetica,sans-Serif" font-size="9.00" fill="white">[Container: rosewt&#45;arariwa/]</text>
<text xml:space="preserve" text-anchor="start" x="303.67" y="-289.1" font-family="Helvetica,sans-Serif" font-size="10.00" fill="white">React/Vite application code, data</text>
<text xml:space="preserve" text-anchor="start" x="296.17" y="-279.1" font-family="Helvetica,sans-Serif" font-size="10.00" fill="white">constants, styles, and public assets.</text>
</g>
<!-- faf6ffd4ae7940039709a72e559b2f5d&#45;&gt;f3bd34d81308477a847669f9349c4ef6 -->
<g id="edge1" class="edge">
<title>faf6ffd4ae7940039709a72e559b2f5d&#45;&gt;f3bd34d81308477a847669f9349c4ef6</title>
<path fill="none" stroke="#999999" stroke-width="1.2" stroke-dasharray="5,2" d="M187.58,-304.6C187.58,-304.6 278.83,-304.6 278.83,-304.6"/>
<polygon fill="#999999" stroke="#999999" stroke-width="1.2" points="278.83,-308.1 288.83,-304.6 278.83,-301.1 278.83,-308.1"/>
<text xml:space="preserve" text-anchor="start" x="220.2" y="-309.35" font-family="Sans-Serif" font-size="10.00" fill="#2d3436">updates</text>
</g>
<!-- 1acb2a19482e464799d67add5646da86 -->
<g id="node2" class="node">
<title>1acb2a19482e464799d67add5646da86</title>
<path fill="#999999" stroke="black" d="M1117.8,-115.2C1117.8,-115.2 954.6,-115.2 954.6,-115.2 948.6,-115.2 942.6,-109.2 942.6,-103.2 942.6,-103.2 942.6,-12 942.6,-12 942.6,-6 948.6,0 954.6,0 954.6,0 1117.8,0 1117.8,0 1123.8,0 1129.8,-6 1129.8,-12 1129.8,-12 1129.8,-103.2 1129.8,-103.2 1129.8,-109.2 1123.8,-115.2 1117.8,-115.2"/>
<text xml:space="preserve" text-anchor="start" x="999.07" y="-74.2" font-family="Helvetica,sans-Serif" font-weight="bold" font-size="12.00" fill="white">Site visitor</text>
<text xml:space="preserve" text-anchor="start" x="997.2" y="-65.05" font-family="Helvetica,sans-Serif" font-size="9.00" fill="white">[External Person]</text>
<text xml:space="preserve" text-anchor="start" x="959.7" y="-42.1" font-family="Helvetica,sans-Serif" font-size="10.00" fill="white">Requests the public portfolio at</text>
<text xml:space="preserve" text-anchor="start" x="1008.07" y="-32.1" font-family="Helvetica,sans-Serif" font-size="10.00" fill="white">rosewt.dev.</text>
</g>
<!-- f2ead127ecc14973996832f9be291ab7 -->
<g id="node7" class="node">
<title>f2ead127ecc14973996832f9be291ab7</title>
<polygon fill="#1874cd" stroke="black" points="1449,-288.2 1261.8,-288.2 1261.8,-173 1449,-173 1449,-288.2"/>
<text xml:space="preserve" text-anchor="start" x="1298.4" y="-247.2" font-family="Helvetica,sans-Serif" font-weight="bold" font-size="12.00" fill="white">Hosting and CDN</text>
<text xml:space="preserve" text-anchor="start" x="1302.15" y="-238.05" font-family="Helvetica,sans-Serif" font-size="9.00" fill="white">[Container: rosewt.dev]</text>
<text xml:space="preserve" text-anchor="start" x="1266.15" y="-215.1" font-family="Helvetica,sans-Serif" font-size="10.00" fill="white">Serves the site globally and rewrites</text>
<text xml:space="preserve" text-anchor="start" x="1279.28" y="-205.1" font-family="Helvetica,sans-Serif" font-size="10.00" fill="white">unknown routes to /index.html.</text>
</g>
<!-- 1acb2a19482e464799d67add5646da86&#45;&gt;f2ead127ecc14973996832f9be291ab7 -->
<g id="edge6" class="edge">
<title>1acb2a19482e464799d67add5646da86&#45;&gt;f2ead127ecc14973996832f9be291ab7</title>
<path fill="none" stroke="#999999" stroke-width="1.2" stroke-dasharray="5,2" d="M1130.13,-57.6C1224.16,-57.6 1355,-57.6 1355,-57.6 1355,-57.6 1355,-160.7 1355,-160.7"/>
<polygon fill="#999999" stroke="#999999" stroke-width="1.2" points="1351.5,-160.7 1355,-170.7 1358.5,-160.7 1351.5,-160.7"/>
<text xml:space="preserve" text-anchor="start" x="1175.55" y="-62.35" font-family="Sans-Serif" font-size="10.00" fill="#2d3436">requests</text>
</g>
<!-- 39cac74b1e634589808f6c660e22aa5d -->
<g id="node5" class="node">
<title>39cac74b1e634589808f6c660e22aa5d</title>
<polygon fill="#1874cd" stroke="black" points="833.85,-288.2 646.65,-288.2 646.65,-173 833.85,-173 833.85,-288.2"/>
<text xml:space="preserve" text-anchor="start" x="711.37" y="-252.2" font-family="Helvetica,sans-Serif" font-weight="bold" font-size="12.00" fill="white">Build job</text>
<text xml:space="preserve" text-anchor="start" x="653.25" y="-243.05" font-family="Helvetica,sans-Serif" font-size="9.00" fill="white">[Container: Node 20 + npm run build]</text>
<text xml:space="preserve" text-anchor="start" x="645" y="-220.1" font-family="Helvetica,sans-Serif" font-size="10.00" fill="white">Runs the production build from rosewt&#45;</text>
<text xml:space="preserve" text-anchor="start" x="670.12" y="-210.1" font-family="Helvetica,sans-Serif" font-size="10.00" fill="white">arariwa/ using the repository</text>
<text xml:space="preserve" text-anchor="start" x="706.87" y="-200.1" font-family="Helvetica,sans-Serif" font-size="10.00" fill="white">configuration.</text>
</g>
<!-- f3bd34d81308477a847669f9349c4ef6&#45;&gt;39cac74b1e634589808f6c660e22aa5d -->
<g id="edge2" class="edge">
<title>f3bd34d81308477a847669f9349c4ef6&#45;&gt;39cac74b1e634589808f6c660e22aa5d</title>
<path fill="none" stroke="#999999" stroke-width="1.2" stroke-dasharray="5,2" d="M478.29,-267.6C478.29,-267.6 634.54,-267.6 634.54,-267.6"/>
<polygon fill="#999999" stroke="#999999" stroke-width="1.2" points="634.54,-271.1 644.54,-267.6 634.54,-264.1 634.54,-271.1"/>
<text xml:space="preserve" text-anchor="start" x="510.9" y="-285.35" font-family="Sans-Serif" font-size="10.00" fill="#2d3436">provides build input to</text>
</g>
<!-- a1ae9b5257d24a1aa8da136375a718f3 -->
<g id="node4" class="node">
<title>a1ae9b5257d24a1aa8da136375a718f3</title>
<polygon fill="#1874cd" stroke="black" points="477.9,-189.2 290.7,-189.2 290.7,-74 477.9,-74 477.9,-189.2"/>
<text xml:space="preserve" text-anchor="start" x="321.3" y="-153.2" font-family="Helvetica,sans-Serif" font-weight="bold" font-size="12.00" fill="white">Deployment config</text>
<text xml:space="preserve" text-anchor="start" x="331.05" y="-144.05" font-family="Helvetica,sans-Serif" font-size="9.00" fill="white">[Container: netlify.toml]</text>
<text xml:space="preserve" text-anchor="start" x="305.17" y="-121.1" font-family="Helvetica,sans-Serif" font-size="10.00" fill="white">Defines the base directory, build</text>
<text xml:space="preserve" text-anchor="start" x="293.55" y="-111.1" font-family="Helvetica,sans-Serif" font-size="10.00" fill="white">command, publish directory, and SPA</text>
<text xml:space="preserve" text-anchor="start" x="364.05" y="-101.1" font-family="Helvetica,sans-Serif" font-size="10.00" fill="white">redirect.</text>
</g>
<!-- a1ae9b5257d24a1aa8da136375a718f3&#45;&gt;39cac74b1e634589808f6c660e22aa5d -->
<g id="edge3" class="edge">
<title>a1ae9b5257d24a1aa8da136375a718f3&#45;&gt;39cac74b1e634589808f6c660e22aa5d</title>
<path fill="none" stroke="#999999" stroke-width="1.2" stroke-dasharray="5,2" d="M478.29,-181.1C478.29,-181.1 634.54,-181.1 634.54,-181.1"/>
<polygon fill="#999999" stroke="#999999" stroke-width="1.2" points="634.54,-184.6 644.54,-181.1 634.54,-177.6 634.54,-184.6"/>
<text xml:space="preserve" text-anchor="start" x="537.9" y="-184.35" font-family="Sans-Serif" font-size="10.00" fill="#2d3436">configures</text>
</g>
<!-- f479d336755944b48fdfe73e90e56e8e -->
<g id="node6" class="node">
<title>f479d336755944b48fdfe73e90e56e8e</title>
<polygon fill="#1874cd" stroke="black" points="1129.8,-288.2 942.6,-288.2 942.6,-173 1129.8,-173 1129.8,-288.2"/>
<text xml:space="preserve" text-anchor="start" x="988.95" y="-252.2" font-family="Helvetica,sans-Serif" font-weight="bold" font-size="12.00" fill="white">Static artifact</text>
<text xml:space="preserve" text-anchor="start" x="997.95" y="-243.05" font-family="Helvetica,sans-Serif" font-size="9.00" fill="white">[Container: dist/]</text>
<text xml:space="preserve" text-anchor="start" x="945.82" y="-220.1" font-family="Helvetica,sans-Serif" font-size="10.00" fill="white">Compiled HTML, JavaScript, CSS, and</text>
<text xml:space="preserve" text-anchor="start" x="963.07" y="-210.1" font-family="Helvetica,sans-Serif" font-size="10.00" fill="white">copied public assets ready for</text>
<text xml:space="preserve" text-anchor="start" x="1009.57" y="-200.1" font-family="Helvetica,sans-Serif" font-size="10.00" fill="white">publishing.</text>
</g>
<!-- 39cac74b1e634589808f6c660e22aa5d&#45;&gt;f479d336755944b48fdfe73e90e56e8e -->
<g id="edge4" class="edge">
<title>39cac74b1e634589808f6c660e22aa5d&#45;&gt;f479d336755944b48fdfe73e90e56e8e</title>
<path fill="none" stroke="#999999" stroke-width="1.2" stroke-dasharray="5,2" d="M834.3,-230.6C834.3,-230.6 930.33,-230.6 930.33,-230.6"/>
<polygon fill="#999999" stroke="#999999" stroke-width="1.2" points="930.33,-234.1 940.33,-230.6 930.33,-227.1 930.33,-234.1"/>
<text xml:space="preserve" text-anchor="start" x="866.85" y="-235.35" font-family="Sans-Serif" font-size="10.00" fill="#2d3436">produces</text>
</g>
<!-- f479d336755944b48fdfe73e90e56e8e&#45;&gt;f2ead127ecc14973996832f9be291ab7 -->
<g id="edge5" class="edge">
<title>f479d336755944b48fdfe73e90e56e8e&#45;&gt;f2ead127ecc14973996832f9be291ab7</title>
<path fill="none" stroke="#999999" stroke-width="1.2" stroke-dasharray="5,2" d="M1130.24,-230.6C1130.24,-230.6 1249.66,-230.6 1249.66,-230.6"/>
<polygon fill="#999999" stroke="#999999" stroke-width="1.2" points="1249.66,-234.1 1259.66,-230.6 1249.66,-227.1 1249.66,-234.1"/>
<text xml:space="preserve" text-anchor="start" x="1162.8" y="-235.35" font-family="Sans-Serif" font-size="10.00" fill="#2d3436">is published to</text>
</g>
</g>
</svg>
